<svg id="Layer_1" data-name="Layer 1" xmlns="http://www.w3.org/2000/svg" xmlns:xlink="http://www.w3.org/1999/xlink" viewBox="0 0 349 337"><defs><style>.cls-1{fill:#d50911;}.cls-2{clip-path:url(#clip-path);}</style><clipPath id="clip-path"><path class="cls-1" d="M210.15,115.42c6,8,10.27,9.29,13,8.94,4-.5,4.54-4.23,11.49-9.19,3.24-2.32,8.48-6.06,15.32-6.13,1.48,0,10.55-.11,13.53,5.87,2.3,4.61.13,11.08-3.57,14.3-3.13,2.72-7.34,3.1-19.15,6.13a22.82,22.82,0,0,0-2.39.74c-1.76.66-4,1.48-5.27,2.83-2.35,2.41-2.16,6.78-1,9.7.18.48,2.27,5.63,6.89,6.39,4.08.66,7.73-2.5,8.68-3.32,1.52-1.32,1.58-2,3.06-2.81.42-.23,4-2.19,6.9-.51s3.52,6.27,2,9.19c-1.95,3.85-7.27,4.29-7.91,4.34-2.48.17-3.34-.69-5.62,0a6.83,6.83,0,0,0-4.34,3.32c-1.15,2.46,0,5.09.51,6.13.76,1.68,1.34,1.66,2.81,4.08a13,13,0,0,1,2,4.34c.8,4.19-2.09,8.39-2.3,8.68-1,1.48-1.92,2-1.78,3.07.2,1.66,2.75,2.6,3.31,2.81,4.84,1.78,7.76-1.5,10.73.25,2.33,1.38,3.37,5.08,2.3,6.38s-4.28.4-9.45-1c-4.71-1.29-6.93-2.47-8.94-1.27-.11.06-1.82,1.11-1.78,2.55.06,2.21,4.2,2.52,7.4,5.62s5.22,8.88,3.32,11.49c-2.31,3.16-10.85,2.49-15.07-1.79-3.94-4-2.14-9.19-5.87-11-2.61-1.26-6.23,0-8.17,2-3.17,3.4-2.21,9.5.51,12.77,3.34,4,7.74,1.87,12,6.38,1.87,2,4.23,5.78,3.07,8.43-1.67,3.79-10.35,4.61-17.11,2.8-9.23-2.46-12.33-9.15-19.4-7.91a7.62,7.62,0,0,0-4.6,2.3c-2.4,2.77-1.67,7.28-1.28,9.7.5,3.07,1.18,3.1,1.28,5.36,0,.73.23,5.17-2.81,8.43s-8.85,4.73-13.27,2a10.87,10.87,0,0,1-4.6-12c1.39-4.23,5.88-4.93,6.13-9.19a6.12,6.12,0,0,0-1.53-4.6c-3-2.83-10.21-.61-16.35,1.28a11.07,11.07,0,0,1-3.06.77c-3.38.16-6,4.55-11.23,1.14-4.91-3.19-6.09-7-9.45-8.8-.58-.3-3-1.78-4.85-1.28-2.67.71-4,1.07-4.85,1-4.58-.28-8.29-7.44-9.19-9.19s-1.11-2.59-2.3-3.58a8,8,0,0,0-6.64-1.53c-3.15.7-3.54,3-5.62,3.07-2.73.1-5.29-3.73-6.38-6.39-2.83-6.9-.48-17.33,6.13-22.21,5.69-4.21,11.14-1.78,14.3-6.64a10.09,10.09,0,0,0,1-8.68c-1.63-4.24-5.63-3.52-10-8.68-1.22-1.46-5.1-6.08-4.09-10.72.82-3.73,9.78-11.71,7.15-8.94a7.58,7.58,0,0,0,4.34-3.57c1.48-3,.29-6.63-1.53-8.68-2.12-2.4-4.25-1.65-6.13-4.34-.83-1.2-1.9-3.5-1-4.86,1-1.57,4.45-1.45,6.9-.51,4.82,1.87,4.88,6.53,8.93,7.15a6.49,6.49,0,0,0,5.11-1.53c1.27-1.14,1.64-2.57,2.3-5.11.77-3,.41-3.79,1-5.87s1.33-4.73,3.32-5.62c.37-.16,1.63-.65,4.08.26,6.51,2.4,6.92,9.21,11.49,9.7a5.8,5.8,0,0,0,4.85-2c2.27-2.7,1.6-8-1-11-3.78-4.36-9.17-1.14-16.34-6.38-1.77-1.3-4.19-3.12-4.59-6.13a8.1,8.1,0,0,1,3.83-7.66c3.29-2,7.33-1,9.7.51,2.77,1.82,2.21,3.72,5.87,8.68,2.78,3.77,4.61,6.25,7.4,6.64,3.92.54,6.11-3.51,9.2-2.55,2.14.66,1.21,3.3,3.83,5.36,2.91,2.29,5.34.35,7.91,2.55s1.2,4.8,3.57,6.64c2.87,2.22,7.55.49,8.18.26,7.22-2.68,8.81-12,8.93-12.77"/></clipPath></defs><path class="cls-1" d="M210.15,115.42c6,8,10.27,9.29,13,8.94,4-.5,4.54-4.23,11.49-9.19,3.24-2.32,8.48-6.06,15.32-6.13,1.48,0,10.55-.11,13.53,5.87,2.3,4.61.13,11.08-3.57,14.3-3.13,2.72-7.34,3.1-19.15,6.13a22.82,22.82,0,0,0-2.39.74c-1.76.66-4,1.48-5.27,2.83-2.35,2.41-2.16,6.78-1,9.7.18.48,2.27,5.63,6.89,6.39,4.08.66,7.73-2.5,8.68-3.32,1.52-1.32,1.58-2,3.06-2.81.42-.23,4-2.19,6.9-.51s3.52,6.27,2,9.19c-1.95,3.85-7.27,4.29-7.91,4.34-2.48.17-3.34-.69-5.62,0a6.83,6.83,0,0,0-4.34,3.32c-1.15,2.46,0,5.09.51,6.13.76,1.68,1.34,1.66,2.81,4.08a13,13,0,0,1,2,4.34c.8,4.19-2.09,8.39-2.3,8.68-1,1.48-1.92,2-1.78,3.07.2,1.66,2.75,2.6,3.31,2.81,4.84,1.78,7.76-1.5,10.73.25,2.33,1.38,3.37,5.08,2.3,6.38s-4.28.4-9.45-1c-4.71-1.29-6.93-2.47-8.94-1.27-.11.06-1.82,1.11-1.78,2.55.06,2.21,4.2,2.52,7.4,5.62s5.22,8.88,3.32,11.49c-2.31,3.16-10.85,2.49-15.07-1.79-3.94-4-2.14-9.19-5.87-11-2.61-1.26-6.23,0-8.17,2-3.17,3.4-2.21,9.5.51,12.77,3.34,4,7.74,1.87,12,6.38,1.87,2,4.23,5.78,3.07,8.43-1.67,3.79-10.35,4.61-17.11,2.8-9.23-2.46-12.33-9.15-19.4-7.91a7.62,7.62,0,0,0-4.6,2.3c-2.4,2.77-1.67,7.28-1.28,9.7.5,3.07,1.18,3.1,1.28,5.36,0,.73.23,5.17-2.81,8.43s-8.85,4.73-13.27,2a10.87,10.87,0,0,1-4.6-12c1.39-4.23,5.88-4.93,6.13-9.19a6.12,6.12,0,0,0-1.53-4.6c-3-2.83-10.21-.61-16.35,1.28a11.07,11.07,0,0,1-3.06.77c-3.38.16-6,4.55-11.23,1.14-4.91-3.19-6.09-7-9.45-8.8-.58-.3-3-1.78-4.85-1.28-2.67.71-4,1.07-4.85,1-4.58-.28-8.29-7.44-9.19-9.19s-1.11-2.59-2.3-3.58a8,8,0,0,0-6.64-1.53c-3.15.7-3.54,3-5.62,3.07-2.73.1-5.29-3.73-6.38-6.39-2.83-6.9-.48-17.33,6.13-22.21,5.69-4.21,11.14-1.78,14.3-6.64a10.09,10.09,0,0,0,1-8.68c-1.63-4.24-5.63-3.52-10-8.68-1.22-1.46-5.1-6.08-4.09-10.72.82-3.73,9.78-11.71,7.15-8.94a7.58,7.58,0,0,0,4.34-3.57c1.48-3,.29-6.63-1.53-8.68-2.12-2.4-4.25-1.65-6.13-4.34-.83-1.2-1.9-3.5-1-4.86,1-1.57,4.45-1.45,6.9-.51,4.82,1.87,4.88,6.53,8.93,7.15a6.49,6.49,0,0,0,5.11-1.53c1.27-1.14,1.64-2.57,2.3-5.11.77-3,.41-3.79,1-5.87s1.33-4.73,3.32-5.62c.37-.16,1.63-.65,4.08.26,6.51,2.4,6.92,9.21,11.49,9.7a5.8,5.8,0,0,0,4.85-2c2.27-2.7,1.6-8-1-11-3.78-4.36-9.17-1.14-16.34-6.38-1.77-1.3-4.19-3.12-4.59-6.13a8.1,8.1,0,0,1,3.83-7.66c3.29-2,7.33-1,9.7.51,2.77,1.82,2.21,3.72,5.87,8.68,2.78,3.77,4.61,6.25,7.4,6.64,3.92.54,6.11-3.51,9.2-2.55,2.14.66,1.21,3.3,3.83,5.36,2.91,2.29,5.34.35,7.91,2.55s1.2,4.8,3.57,6.64c2.87,2.22,7.55.49,8.18.26,7.22-2.68,8.81-12,8.93-12.77"/><g class="cls-2"><image width="212" height="269" transform="matrix(0.5, 0.05, -0.05, 0.5, 146.42, 121.31)" xlink:href="me.png"/></g></svg>