<svg id="Layer_1" data-name="Layer 1" xmlns="http://www.w3.org/2000/svg" xmlns:xlink="http://www.w3.org/1999/xlink" viewBox="0 0 349 337"><defs><style>.cls-1{fill:#d50911;}.cls-2{clip-path:url(#clip-path);}</style><clipPath id="clip-path"><path class="cls-1" d="M240.61,58.52c11.66,15.58,19.87,18,25.2,17.29,7.66-1,8.79-8.17,22.24-17.79,6.27-4.48,16.41-11.72,29.65-11.86,2.88,0,20.42-.21,26.2,11.37,4.44,8.91.25,21.44-6.92,27.67-6.06,5.27-14.2,6-37.07,11.87a42.24,42.24,0,0,0-4.61,1.44c-3.42,1.28-7.67,2.86-10.21,5.47-4.55,4.67-4.17,13.13-2,18.78.36.93,4.4,10.9,13.34,12.36,7.9,1.28,15-4.83,16.81-6.43,2.93-2.54,3.05-3.83,5.93-5.43.8-.45,7.81-4.24,13.34-1s6.83,12.13,4,17.79c-3.78,7.45-14.08,8.32-15.32,8.4-4.8.34-6.45-1.33-10.87,0-1.33.4-6.28,1.9-8.4,6.43-2.23,4.75.08,9.84,1,11.86,1.48,3.26,2.6,3.22,5.43,7.9,2.27,3.75,3.44,5.69,4,8.41,1.54,8.11-4,16.23-4.45,16.8-2,2.85-3.71,3.92-3.46,5.93.41,3.21,5.34,5,6.43,5.43,9.35,3.46,15-2.88,20.75.5,4.53,2.66,6.53,9.83,4.45,12.35s-8.27.77-18.29-2c-9.12-2.51-13.4-4.79-17.29-2.47-.22.12-3.54,2.16-3.46,4.94.12,4.27,8.14,4.88,14.33,10.87s10.1,17.19,6.42,22.24c-4.45,6.12-21,4.83-29.15-3.46-7.63-7.75-4.16-17.77-11.37-21.25-5.06-2.44-12.07-.06-15.81,3.95-6.15,6.59-4.28,18.39,1,24.71,6.46,7.74,15,3.63,23.23,12.36,3.61,3.82,8.19,11.19,5.93,16.31-3.23,7.35-20,8.93-33.11,5.43C240.52,291,234.53,278,220.84,280.41c-1.85.33-6,1.11-8.89,4.45-4.65,5.37-3.24,14.1-2.47,18.78,1,5.95,2.27,6,2.47,10.38.06,1.41.45,10-5.44,16.31s-17.13,9.15-25.7,3.95c-8.38-5.08-11.28-16-8.89-23.23,2.69-8.18,11.38-9.54,11.86-17.79.06-1,.21-5.93-3-8.89-5.87-5.49-19.76-1.2-31.63,2.47-3.17,1-4,1.39-5.93,1.48-6.55.32-11.63,8.82-21.74,2.22-9.49-6.19-11.78-13.65-18.29-17.05-1.11-.58-5.76-3.44-9.39-2.47-5.16,1.39-7.74,2.08-9.39,2-8.85-.54-16-14.41-17.79-17.79-1.66-3.2-2.15-5-4.45-6.92a15.5,15.5,0,0,0-12.84-3c-6.1,1.36-6.86,5.78-10.88,5.93-5.29.21-10.24-7.21-12.35-12.35-5.49-13.35-.93-33.54,11.86-43,11-8.14,21.57-3.44,27.67-12.84a19.46,19.46,0,0,0,2-16.81c-3.16-8.2-10.89-6.81-19.27-16.8-2.37-2.82-9.87-11.76-7.91-20.76C42,121.48,59.38,106,54.3,111.4c1.47-.51,6.11-2.3,8.4-6.92,2.85-5.75.55-12.83-3-16.8C55.62,83,51.5,84.5,47.87,79.27c-1.61-2.32-3.69-6.76-2-9.39,2-3,8.6-2.81,13.34-1,9.33,3.6,9.46,12.63,17.3,13.83a12.53,12.53,0,0,0,9.88-3c2.46-2.2,3.18-5,4.45-9.89,1.5-5.81.8-7.34,2-11.36,1.23-4.18,2.57-9.15,6.43-10.87.71-.32,3.15-1.26,7.91.49,12.59,4.64,13.38,17.82,22.24,18.78a11.24,11.24,0,0,0,9.38-4c4.39-5.23,3.09-15.42-2-21.25-7.33-8.44-17.75-2.22-31.63-12.36-3.43-2.5-8.11-6-8.9-11.86s2.52-11.79,7.42-14.83c6.38-3.95,14.19-2,18.78,1,5.36,3.52,4.28,7.2,11.36,16.8,5.39,7.31,8.92,12.1,14.33,12.85,7.58,1.06,11.82-6.79,17.8-4.94,4.16,1.29,2.35,6.39,7.41,10.38,5.63,4.44,10.34.68,15.32,4.94,4.82,4.13,2.33,9.29,6.92,12.85,5.54,4.3,14.6,1,15.81.5,14-5.18,17.07-23.23,17.3-24.71"/></clipPath></defs><path class="cls-1" d="M240.61,58.52c11.66,15.58,19.87,18,25.2,17.29,7.66-1,8.79-8.17,22.24-17.79,6.27-4.48,16.41-11.72,29.65-11.86,2.88,0,20.42-.21,26.2,11.37,4.44,8.91.25,21.44-6.92,27.67-6.06,5.27-14.2,6-37.07,11.87a42.24,42.24,0,0,0-4.61,1.44c-3.42,1.28-7.67,2.86-10.21,5.47-4.55,4.67-4.17,13.13-2,18.78.36.93,4.4,10.9,13.34,12.36,7.9,1.28,15-4.83,16.81-6.43,2.93-2.54,3.05-3.83,5.93-5.43.8-.45,7.81-4.24,13.34-1s6.83,12.13,4,17.79c-3.78,7.45-14.08,8.32-15.32,8.4-4.8.34-6.45-1.33-10.87,0-1.33.4-6.28,1.9-8.4,6.43-2.23,4.75.08,9.84,1,11.86,1.48,3.26,2.6,3.22,5.43,7.9,2.27,3.75,3.44,5.69,4,8.41,1.54,8.11-4,16.23-4.45,16.8-2,2.85-3.71,3.92-3.46,5.93.41,3.21,5.34,5,6.43,5.43,9.35,3.46,15-2.88,20.75.5,4.53,2.66,6.53,9.83,4.45,12.35s-8.27.77-18.29-2c-9.12-2.51-13.4-4.79-17.29-2.47-.22.12-3.54,2.16-3.46,4.94.12,4.27,8.14,4.88,14.33,10.87s10.1,17.19,6.42,22.24c-4.45,6.12-21,4.83-29.15-3.46-7.63-7.75-4.16-17.77-11.37-21.25-5.06-2.44-12.07-.06-15.81,3.95-6.15,6.59-4.28,18.39,1,24.71,6.46,7.74,15,3.63,23.23,12.36,3.61,3.82,8.19,11.19,5.93,16.31-3.23,7.35-20,8.93-33.11,5.43C240.52,291,234.53,278,220.84,280.41c-1.85.33-6,1.11-8.89,4.45-4.65,5.37-3.24,14.1-2.47,18.78,1,5.95,2.27,6,2.47,10.38.06,1.41.45,10-5.44,16.31s-17.13,9.15-25.7,3.95c-8.38-5.08-11.28-16-8.89-23.23,2.69-8.18,11.38-9.54,11.86-17.79.06-1,.21-5.93-3-8.89-5.87-5.49-19.76-1.2-31.63,2.47-3.17,1-4,1.39-5.93,1.48-6.55.32-11.63,8.82-21.74,2.22-9.49-6.19-11.78-13.65-18.29-17.05-1.11-.58-5.76-3.44-9.39-2.47-5.16,1.39-7.74,2.08-9.39,2-8.85-.54-16-14.41-17.79-17.79-1.66-3.2-2.15-5-4.45-6.92a15.5,15.5,0,0,0-12.84-3c-6.1,1.36-6.86,5.78-10.88,5.93-5.29.21-10.24-7.21-12.35-12.35-5.49-13.35-.93-33.54,11.86-43,11-8.14,21.57-3.44,27.67-12.84a19.46,19.46,0,0,0,2-16.81c-3.16-8.2-10.89-6.81-19.27-16.8-2.37-2.82-9.87-11.76-7.91-20.76C42,121.48,59.38,106,54.3,111.4c1.47-.51,6.11-2.3,8.4-6.92,2.85-5.75.55-12.83-3-16.8C55.62,83,51.5,84.5,47.87,79.27c-1.61-2.32-3.69-6.76-2-9.39,2-3,8.6-2.81,13.34-1,9.33,3.6,9.46,12.63,17.3,13.83a12.53,12.53,0,0,0,9.88-3c2.46-2.2,3.18-5,4.45-9.89,1.5-5.81.8-7.34,2-11.36,1.23-4.18,2.57-9.15,6.43-10.87.71-.32,3.15-1.26,7.91.49,12.59,4.64,13.38,17.82,22.24,18.78a11.24,11.24,0,0,0,9.38-4c4.39-5.23,3.09-15.42-2-21.25-7.33-8.44-17.75-2.22-31.63-12.36-3.43-2.5-8.11-6-8.9-11.86s2.52-11.79,7.42-14.83c6.38-3.95,14.19-2,18.78,1,5.36,3.52,4.28,7.2,11.36,16.8,5.39,7.31,8.92,12.1,14.33,12.85,7.58,1.06,11.82-6.79,17.8-4.94,4.16,1.29,2.35,6.39,7.41,10.38,5.63,4.44,10.34.68,15.32,4.94,4.82,4.13,2.33,9.29,6.92,12.85,5.54,4.3,14.6,1,15.81.5,14-5.18,17.07-23.23,17.3-24.71"/><g class="cls-2"><image width="212" height="269" transform="translate(117.26 69.92) rotate(5.15) scale(0.98)" xlink:href="me.png"/></g></svg>