<svg id="Layer_1" data-name="Layer 1" xmlns="http://www.w3.org/2000/svg" viewBox="0 0 349 337"><defs><style>.cls-1{fill:#2a74ba;}</style></defs><path class="cls-1" d="M95.36,232.73a52.13,52.13,0,0,0,3.36-17.8c.13-4.79-2.18-6.22-6.66-4.43a29.09,29.09,0,0,0-5.65,3.12c-4,2.78-8,5.6-12,8.41-1.33.52-2.72,2-4.41,2.32-4.26,1.73-7.64,4.66-11,5.39-4,.42-8.37,2.84-11.11-.25a21.08,21.08,0,0,0-1.74-2.38,46.47,46.47,0,0,1-2.64-4.34L43,221.45a10.1,10.1,0,0,1-.73-2.62,37,37,0,0,1-4.36-12.26c-.9-5.95.37-11.54,2.88-16.91.24-.52.48-1.06.71-1.59a19.14,19.14,0,0,1,8.7-9.55c5.93-3.51,11.81-3.41,18.16-.73,6.65,2.81,13.36,2.38,19.24-2.37,3.06-2.49,5.11-5.66,4.59-9.85-.74-6-4.57-9.51-10.6-9.8-2.61-.12-5.23.07-7.84,0s-3.49-.93-3.27-3.44c.24-2.74,1.58-4,4-3.52,2.18.42,4.32,1,6.47,1.56a22.49,22.49,0,0,0,8.37.45c1.14-.15,2.45-.37,2.83-1.75s-.46-2.14-1.23-2.93c-4-4-8.89-6.07-14.37-7-3.8-.64-7.67-.91-11.37-2.07-3.86-1.22-5.42-4.22-4.14-7.74A5.66,5.66,0,0,1,70,126.55c2.36,1.64,4.55,3.52,6.77,5.34,5.18,4.23,10.88,5.46,17.24,3.1,4.46-1.66,6.58-4.93,5.94-9.16a9.27,9.27,0,0,0-8.47-7.46c-2-.11-4.06.11-6.08,0-5.79-.19-9.44-3.68-9.39-8.88.07-6.6,3.53-10.29,9.7-10.37a16.13,16.13,0,0,1,4.85.59,2.27,2.27,0,0,0,2.83-1.12,5.41,5.41,0,0,0,.6-1c1.4-3.82,3.83-6.17,8.13-6.53,2.15-.17,2.51-1.11,2.16-3.31a14.55,14.55,0,0,0-6.39-9.72c-2.95-2.12-6.33-3.38-9.59-4.9a11.69,11.69,0,0,1-7-9.06,9.83,9.83,0,0,1-.12-2.54c.51-5.78,5-7.85,9.72-4.5,3.16,2.24,5.28,5.41,7.42,8.54,2.51,3.67,4.75,7.52,7.51,11A46.58,46.58,0,0,0,122,89.76c7.84,3.82,20.91,4.55,28.1-7.69a33,33,0,0,0,4.6-13,10,10,0,0,0-.62-5.19c-1.48-4.3-1.14-8,2.84-10.33a48,48,0,0,0,7-4.57,3.78,3.78,0,0,0,1.2-1.54c1.78-3.31,4.45-5.86,7.18-8.35a11.82,11.82,0,0,1,3.79-2.68c4.07-2.75,8.23-5.25,13.24-6,10.17-1.59,20.41,6.41,21.34,16.67.67,7.34-.82,14.44-2.2,21.55s-3.82,13.71-5.56,20.61c-1.1,4.41-2,8.78-.61,13.32,1.15,3.85,3.16,6.73,7.34,7.55,4,.78,7.2-.57,9.85-3.49a19.43,19.43,0,0,0,4.86-12.33,29,29,0,0,1,1.18-6.48c1.11-2.89,2.81-5.21,6-6.14a20.61,20.61,0,0,1,6-1.64c7.86-.52,12.78,4,13.11,11.92a24,24,0,0,1-1.63,9.6c-.61,1.61-.08,2.37,1.4,2.71s3.06.71,4.61,1c5.29.84,6.57,4.85,6.46,9.2-.08,3.2-1.82,5.81-3.44,8.43-.56.89-1.73,1.89-.9,2.94s2.31.54,3.47.13c3-1,5.51-3,8.12-4.7A83.63,83.63,0,0,1,279,114.7a23,23,0,0,1,4.19-1.63c6.24-1.61,12.22,4.22,10.67,10.36a10.18,10.18,0,0,1-4.35,5.63c-4.9,3.54-10.51,5.5-16.27,7a36.28,36.28,0,0,0-14,6.84c-10.23,8.42-11.57,20.39-3.52,30.91,5.7,7.45,13.11,9.87,22.2,8,10.26-2.18,18.18,1.82,23.83,10.15,5.91,8.71,7.07,18.08,1.44,27.48-5.4,9-16.64,13.1-27.21,10.21-6.13-1.68-11.3-5-16-9.15a47.67,47.67,0,0,0-9.9-7,13.55,13.55,0,0,0-3.87-1.33c-4-.65-6.72,2.48-5.55,6.36a9.35,9.35,0,0,0,2.74,4.24c8.63,7.72,18.19,13.39,30.24,13.4a22.13,22.13,0,0,1,6,.78c3.16.89,5.92,2.35,6.75,5.84s-.58,6.65-2.94,9.32c-.3.33-.66.62-1,.93-2.23,2.63-5.19,2.47-8.17,2.05-.52-.07-1.19,0-1.62-.49a8.71,8.71,0,0,1-4.87-5.77,9.33,9.33,0,0,0-3.35-4.51A44.36,44.36,0,0,0,241.94,234c-2.42-.34-4.65.5-6.95.89-.3.05-.67.14-.72.55s.31.7.7.78a14.54,14.54,0,0,0,1.74.23c5.11.47,9.17,2.71,11.47,7.39a14.57,14.57,0,0,1-.67,14.59,5.18,5.18,0,0,1-4.18,2.5c-7,.85-5.87.92-6.39,6.87-.6,7-1.74,13.91-6.31,19.65a23.52,23.52,0,0,1-13.75,8.42c-1.14.5-2.37.11-3.6.49-2.44.75-4.12,2.41-5.93,3.95a9.13,9.13,0,0,1-6.87,2.06c-.2,0-.32-.2-.43-.37a10.08,10.08,0,0,1-5-5q-3.89-7.58-8-15a16.22,16.22,0,0,1-1.7-12.65,4.52,4.52,0,0,0-1-4.39c-.45-.52-.55-1.16-.94-1.66a1,1,0,0,1-.34-.19c-2.07-3-5-5.15-7.79-7.43a15.58,15.58,0,0,0-7.23-2.2c-5-.37-9.57,1-14.07,2.85-2.9,1.2-3.76,3.79-4.26,6.59-.76,4.21-.25,8.49-.68,12.71-.06.52-.06,1.05-.12,1.57-.54,4.68-2.87,6.22-7.26,4.58-1.31-.48-1.49,0-1.78,1-.55,1.95-1.13,3.89-1.85,5.78s-1.59,3.52-4,3.39a6,6,0,0,1-5.08-4,12.91,12.91,0,0,1,.12-6.59,49.33,49.33,0,0,1,2.64-8.4,93.85,93.85,0,0,0,5.26-20,14.76,14.76,0,0,0,0-5.66,3.91,3.91,0,0,0-2.88-3.38c-1.61-.38-2.8.5-3.75,1.62a11.94,11.94,0,0,0-2.8,10.41c.56,2.9,1.08,5.79.22,8.71a7.62,7.62,0,0,1-6.91,5.77c-5.55.67-9.65-1.28-11.92-5.61s-1-8.21,3.24-10.42c1.21-.64,2.42-1.28,3.59-2a9.27,9.27,0,0,0,2.79-2.72c2.28-3.38,1-6.84-2.93-7.91a19,19,0,0,0-8-.1c-3.7,1.09-6.41,3.72-9.37,6-3,2.94-5.61,6.14-6.77,10.35-.9,3.27-1.83,6.53-2.46,9.88a15.1,15.1,0,0,1-.71,2.44c-2.4,6.58-8,9.31-14,6.77-6.36-2.73-9-9.55-6-15.6.48-1,1.1-1.92,1.66-2.88M34.49,299.61c-2.35,8.4-1,16.09,5.64,22.3,3.62,3.42,8,4,12.49,1.84a18.79,18.79,0,0,0,5.08-3.63,42.66,42.66,0,0,0,10.88-19,27.73,27.73,0,0,0,1.12-11.8c-.81-5.55-4.44-8.76-10-8.76C47.27,281.57,37.83,287.68,34.49,299.61Zm271.9-191h0a4.5,4.5,0,0,0,3.54,3.51c7.73,2.29,15.28,2.14,22.23-2.34a13.26,13.26,0,0,0,4-18c-3.47-5.86-10.35-7.58-16.93-3.93S308,96.86,306,104.3C305.87,105.76,305.08,107.28,306.39,108.6ZM54.72,18.75C49.08,23.07,48.4,28.57,52.93,34a33.17,33.17,0,0,0,12.55,9.13,17.4,17.4,0,0,0,6.61,1.64c4.14.06,6.47-2.2,6.07-6.33A33.66,33.66,0,0,0,72,21.34c-2.33-3.15-5.32-5.39-9.49-5.44A12.42,12.42,0,0,0,54.72,18.75ZM56,153.57c2.81-1.64,3.39-3.77,1.84-6.61a11.45,11.45,0,0,0-2.31-2.91,28.24,28.24,0,0,0-17.56-7.82c-5.91-.41-10.11,3.45-10.85,9.74a10,10,0,0,0,8.26,11.27,22.19,22.19,0,0,0,5.08.45A30.92,30.92,0,0,0,56,153.57Zm-20.31,77a8.34,8.34,0,1,0,8.22,8.4A8.24,8.24,0,0,0,35.65,230.55Zm124-203.72a5.32,5.32,0,0,0-7.36-1.2,10.51,10.51,0,0,0-5.13,8.57c-.26,3.28,1.84,6,5.37,7.36a6.36,6.36,0,0,0,7.57-2,10.59,10.59,0,0,0,2.2-6.13A10.6,10.6,0,0,0,159.6,26.83ZM132.34,301.28c-1.85-1.45-4.06-1.68-5.77-.26a13.86,13.86,0,0,0-5.45,9.62,5.85,5.85,0,0,0,5.73,6.34c4.45.16,8.84-4.07,8.83-8.49A9.17,9.17,0,0,0,132.34,301.28ZM71.41,93.07a12.29,12.29,0,0,0-4.57-5.22c-2.69-1.71-5.25-1.58-7.15.34-2.48,2.52-2.95,5.73-1.08,8.33a9.74,9.74,0,0,0,7.29,4.23C71.6,100.72,73.56,97.59,71.41,93.07ZM266.63,260.34c-1.5-1.47-3.32-1.75-4.76-.59a10.25,10.25,0,0,0-4.2,7.44,4.41,4.41,0,0,0,4.24,4.68c3.4.2,6.82-3,6.82-7A6.76,6.76,0,0,0,266.63,260.34ZM218.15,33.46a5.4,5.4,0,0,0,5.37-5.33,5.48,5.48,0,0,0-5.33-5.4,5.37,5.37,0,0,0,0,10.73ZM82.69,283.53a5,5,0,1,0,5,5.1A5,5,0,0,0,82.69,283.53ZM308.85,129.46a5.06,5.06,0,0,0,5,5.19,5,5,0,0,0,5.17-4.76,5,5,0,0,0-4.83-5.3A5.11,5.11,0,0,0,308.85,129.46Zm29.33-59.71c-1.06,0-2.13-1.49-3.17,0,0,.75.7.85,1.07,1.25a2.33,2.33,0,1,1-3.37,3.22,2.31,2.31,0,0,1,.38-3.41c.5-.4,1.23-.47,1.56-1.1a3,3,0,0,0-3.55-.65,4.2,4.2,0,0,0-1,4.61,10.18,10.18,0,0,0,2.3,3.4c1.12,1.09,3.63.77,3.77-.34.23-1.81,1.23-2.25,2.55-2,1.13-1.9-.35-3.37-.53-5Zm-52.08,192c-1.35,0-3.28,2.63-3.26,4.41a2.5,2.5,0,0,0,2.52,2.43,3.69,3.69,0,0,0,3.36-3.45C288.72,263.47,287.4,261.77,286.1,261.78Zm1,50.41c-1.44,0-3.26,2.44-3.22,4.34a2.26,2.26,0,0,0,2.3,2.39,3.69,3.69,0,0,0,3.59-3.42C289.83,313.84,288.5,312.18,287.14,312.19ZM163.4,271.12c0-1.61-1.21-3.17-2.51-3.25-1.47-.09-3.32,2.19-3.36,4.19a2.27,2.27,0,0,0,2.08,2.53A3.73,3.73,0,0,0,163.4,271.12Zm93.33,15.65c-1.38,0-3.29,2.53-3.29,4.34A2.39,2.39,0,0,0,256,293.5a3.58,3.58,0,0,0,3.37-3.37C259.34,288.37,258.1,286.77,256.73,286.77ZM141.39,61.57c-1.33,0-3.24,2.65-3.24,4.42a2.36,2.36,0,0,0,2.56,2.33,3.44,3.44,0,0,0,3.29-3.4C144,63.15,142.72,61.52,141.39,61.57Zm193.26,8.17a9.41,9.41,0,0,0-1.31.38,2.69,2.69,0,0,0-1.73,3,2.87,2.87,0,0,0,5.53.65,2.67,2.67,0,0,0-1-3.3,7.89,7.89,0,0,0-1.17-.67A.41.41,0,0,1,334.65,69.74ZM22.41,317.53a3.12,3.12,0,0,0-2.89,2.89,2.94,2.94,0,0,0,3,2.89,2.89,2.89,0,0,0,2.76-2.93A3,3,0,0,0,22.41,317.53ZM90.23,40a2.9,2.9,0,1,0,0,5.79,2.9,2.9,0,0,0,0-5.79Zm183.54,70.57h0c1.84-.63,2.17-1.41,1.64-3.88a.56.56,0,0,1-.15-.35c-.24-1.67-1.63-1.37-2.72-1.58-3,1.17-3.5,2.77-1.76,5.38A1.9,1.9,0,0,0,273.77,110.53ZM23.62,188.89a2.84,2.84,0,0,0,2.81,2.91A2.9,2.9,0,0,0,26.5,186,2.93,2.93,0,0,0,23.62,188.89ZM38.91,12A2.92,2.92,0,0,0,36,14.78,2.9,2.9,0,1,0,38.91,12Z"/></svg>